<svg version="1.2" xmlns="http://www.w3.org/2000/svg" viewBox="0 0 50 50" width="50" height="50"><style>.a{fill:#fff}</style><path class="a" d="m0 31c-5.5 0-10-2.7-10-6 0-3.3 4.5-6 10-6 5.5 0 10 2.7 10 6 0 3.3-4.5 6-10 6z"/><path class="a" d="m50 31c-5.5 0-10-2.7-10-6 0-3.3 4.5-6 10-6 5.5 0 10 2.7 10 6 0 3.3-4.5 6-10 6z"/><path class="a" d="m25 6c-5.5 0-10-2.7-10-6 0-3.3 4.5-6 10-6 5.5 0 10 2.7 10 6 0 3.3-4.5 6-10 6z"/><path class="a" d="m25 56c-5.5 0-10-2.7-10-6 0-3.3 4.5-6 10-6 5.5 0 10 2.7 10 6 0 3.3-4.5 6-10 6z"/></svg>