<svg version="1.2" xmlns="http://www.w3.org/2000/svg" viewBox="0 0 1504 443" width="1504" height="443"><style>.a{fill:#d1eeff}.b{fill:#abe0ff}.c{fill:#ebf7ff}</style><path class="a" d="m1501.7 345.6c-6.2 7.5-41.2 21.3-85.9 30.3-34.7 7-75.4 11.2-113 7.3-44.2 30.9-221.1 35.4-311.7-2.2-64.1 35.3-137 81.8-227.6 53-61.9 8.9-199 11.1-236.5-50.8-31 26.5-139.3 46.4-238.7 46.4-73.3 0-90.2-23.9-122.3-37.5-11.4-4.8-24.8-8.3-43.5-8.9-70.8-2.2-103.9 44.2-119.4 4.4q-15.5-39.8 70.8-35.4c-9.1-66.1 82-110.1 128.1-61.8-13-22.3-17.5-44.3-15.1-63.8 5.4-43.2 44.9-74 101.4-66.7-11.2-92.4 45-134.3 130.4-97.2 34-86 169.8-78.1 211.4-5.4 6.4 11.3 10.6 24.2 11.8 38.6 35.4-12.6 73.2 1.2 100.3 26.9 30.4 28.9 47.3 72.8 32.3 111.5 15.4-26.9 91.8-55.7 115-41.2 26.3-102.2 155.8-87.8 159.1 17.7 46.8-57.8 110.4-58.6 149.3-8.4 7.1 9.2 13.5 20.1 18.7 32.7 76.8-49.4 189.3 6.2 196.7 97.2 66.3 0 99.5 0 88.4 13.3z"/><path class="b" d="m1415.8 375.9c-34.7 7-75.4 11.2-113 7.3-44.2 30.9-221.1 35.4-311.7-2.2-64.1 35.3-137 81.8-227.6 53-61.9 8.9-199 11.1-236.5-50.8-31 26.5-139.3 46.4-238.7 46.4-73.3 0-90.2-23.9-122.3-37.5 31.1 0.7 91.5-2.6 117.6-36 9 30 44 37.9 73 29 28.9-9 55.9-53 13.9-83 39-11 88-44.9 97-54.9q-8 26.9 20 43.9c20 11 47.9-5 47.9-15 28 17 81 36 119.9 36 6 32 11 61 76 66.9 38.9 32 117.9 40 159.8 5.1 15 16 82.9-17 101-35 29.9 29.9 110.8 2 123.8-19q-32.9-2-39.9-22 114.9 14 179.8 10-40.9 12-74.9 15c52.9 33 92.9 20 112.9 16 23.3 18.2 70.9 27.9 122 26.8z"/><path class="c" d="m630.1 57.3q-1.1 0.5-2.2 0.9c-39-39-106.1-32.5-127.7 17.3-51.9-2.2-86.6 26-75.8 77.9-28.1-4.3-90.9 0-112.5 43.3-32.5-21.7-62.8-2.2-80.1 21.6-23.1-5.8-36.8 0.1-44.9 8.3 5.4-43.2 44.9-74 101.4-66.7-11.2-92.4 45-134.3 130.4-97.2 34-86 169.8-78.1 211.4-5.4z"/><path class="c" d="m1197.9 202.4c-34.4-19.8-67.7-14.4-67.7 15q-68.3 1.3-99.8 27.6c6.6-19.7-9.2-69.6-34.2-60.4-24.9-1.3-80.1 2.6-63 55.2-25-28.9-119.6-25-126.2-4-5.2 5.3-17.1 53.9-57.8 68.4 15.8-31.6 6.6-84.1-9.2-89.4 19.6-34.2 12.8-67.6 2.2-92 30.4 28.9 47.3 72.8 32.3 111.5 15.4-26.9 91.8-55.7 115-41.2 26.3-102.2 155.8-87.8 159.1 17.7 46.8-57.8 110.4-58.6 149.3-8.4z"/></svg>