<svg version="1.2" xmlns="http://www.w3.org/2000/svg" viewBox="0 0 1606 410" width="1606" height="410"><style>.a{fill:#d1eeff}.b{fill:#abe0ff}.c{fill:#ebf7ff}</style><path class="a" d="m1605.4 335.7c-23.7 0-187 23.7-255.4 10.5q-1.3 0.2-2.5 0.4c-56.4 8.3-174.7 33.7-226.6 25.9-52.7 47.4-189.6 50.1-187 2.7q-113.2 34.2-176.4 5.2c-84.2 36.9-252.7 21.1-318.6-15.7-50 13.1-163.2 2.6-250.1-10.6q-6-0.9-12.4-1.5c-87.2-8.1-214.2 26.1-164-9 49.4-34.6 115.2-36.8 125.1-28.1-23.4-35.5 0.2-79.9 43.4-79.9-21.8-67.3 10.8-113.6 81.6-115.8-11.9-74.2 84-98 144.2-73.4 31 12.7 52.6 38.1 45.4 76 69.6-0.4 111.7 62.5 90.1 122.6 20-28.5 56.8-44 91.6-35.7-27.4-87.3 2.2-136.3 92.1-152.7 14.2-53.4 91.9-75.2 131.7-36.9 50.1-29.8 117.5-5 146.4 42.3 9.1 14.7 14.4 31.7 14.2 49.9 8.4-19.5 30.6-29 55.6-30.5 45.4-2.6 100.6 21.1 102.4 59.5 74.8-40.8 155.2 15.9 142.2 100 22.8-13 46.8-10.3 64.7 1.4 23.4 15.3 36.3 46.2 22.1 77.6 8 2.6 121.2 0 200.2 15.8z"/><path class="b" d="m1347.5 346.6c-56.4 8.3-174.7 33.7-226.6 25.9-52.7 47.4-189.6 50.1-187 2.7q-113.2 34.2-176.4 5.2c-84.2 36.9-252.7 21.1-318.6-15.7-50 13.1-163.2 2.6-250.1-10.6q-6-0.9-12.4-1.5c12.3-5.4 26-14.5 39.2-29.7 44.4 22.2 87-44.4 79.6-75.8q46.2 13 131.2 7.4c-33.3 14.8 7.4 61 31.5 68.4-1.9 20.4 62.8 62.9 112.8 48.1 49.9-14.8 46.2-55.5 40.6-61q37 12.9 85.1-14.8-35.2-5.5-40.7-24.1 85.1-1.8 138.7-24-27.8 27.8-57.4 37c31.5 37 72.2 7.4 88.8 1.8 7.4 27.8 85.1 57.4 111 0q-31.5-5.5-46.3-33.2 66.6 16.6 155.3 7.4-33.2 20.3-61 20.3c14.8 37 48.1 31.4 77.7 11.1 16.6 22.2 94.2 31.4 136.8-22.2 5.5 49.9 53.6 51.8 83.2 40.7 1 12.5 30.7 27.1 65 36.6z"/><path class="c" d="m1004 62c-12.2-5.2-26.8-1.3-35.1 18.9-14.8-16.1-76.6-39-99.5-1.3-14.8-53.8-86-39-102.1-1.4-40.4-22.8-56.5 10.8-53.8 53.8-33.6 5.4-64.5 36.3-40.3 80.7q13.4-4.1 69.9 16.1-76.6 8.1-127.7 36.2c0.6-1 11.1-17.8 22.8-30.8-63.2-4.1-80.6 12.1-111.5 59.1 13.4-45.7-10.8-100.8-33.7-92.7 0-28.3-22.8-53.8-69.9-53.8 19.2-38.3-1.3-78.5-16.4-100.4 31 12.7 52.6 38.1 45.4 76 69.6-0.4 111.7 62.5 90.1 122.6 20-28.5 56.8-44 91.6-35.7-27.4-87.3 2.2-136.3 92.1-152.7 14.2-53.4 91.9-75.2 131.7-36.9 50.1-29.8 117.5-5 146.4 42.3z"/><path class="c" d="m1383.1 242.3c-9.9 0-22.5 4.6-37.1 19.3-17.9-6-49.1-17.9-77.3 11.9q-22.3-22.3-78.8-31.2 43.1-3 77.3 10.4-8.9-34.2 34.2-26.8c-14.9-44.6-43.1-50.5-63.9-37.1-8.9-31.3-41.7-52.1-81.8-29.7 0-31.3-32.7-59.5-49-50.6-5-9.9-17.8-21.1-32.9-27.1 45.4-2.6 100.6 21.1 102.4 59.5 74.8-40.8 155.2 15.9 142.2 100 22.8-13 46.8-10.3 64.7 1.4z"/></svg>