<svg version="1.2" xmlns="http://www.w3.org/2000/svg" viewBox="0 0 2514 420" width="2514" height="420"><style>.a{fill:#179ab9}.b{fill:#17adc6}.c{fill:#53c3d9}.d{fill:#fff}</style><path class="a" d="m2514 90.4v309.1h-2513.4v-309.1c115.2 37.2 292.3 45.1 525.6-89.7h0.2q240.8 238.4 582.1 0 226.7 210.5 500.4 0 152.9 200.4 420.2 0 154.6 185.7 329.1 0 53.3 56.5 155.8 89.7z"/><path class="b" d="m200.1 24.9h0.4c287.2 235 492.6 8.9 500.4 0h0.5q232.5 231.2 533.2 0c238.4 225.8 422.2 8.7 429.4 0h0.5c275.6 234 464.6 8.8 471.8 0h0.5c168.3 97 290.2 124.2 377.2 119.3v231h-2513.4v-231c150.6-8.6 197-113.3 199.5-119.3z"/><path class="c" d="m2514 188.2v231.1h-2513.4v-231.1c87.1 5 208.9-22.2 377.2-119.2h0.6c7.2 8.8 196.1 233.9 471.7 0h0.6c7.1 8.6 190.9 225.7 429.3 0q300.7 231.1 533.2 0h0.5c7.8 8.8 213.2 235 500.4 0h0.4c2.6 5.9 48.9 110.7 199.5 119.2z"/><path class="d" d="m378.3 68.7q-0.1 0-0.1 0.1-0.1-0.1-0.1-0.1z"/><path class="d" d="m378.3 68.7q-0.1 0-0.1 0.1-0.1-0.1-0.1-0.1z"/></svg>